HIERARCHY
ROOT hip
{
	OFFSET 0.000000 0.000000 0.000000 
	CHANNELS 6 Xposition Yposition Zposition Xrotation Zrotation Yrotation
	JOINT abdomen
	{
		OFFSET 0.000000 3.402643 0.000000 
		CHANNELS 3 Xrotation Zrotation Yrotation
		JOINT chest
		{
			OFFSET 0.000000 8.438565 -0.680529 
			CHANNELS 3 Xrotation Zrotation Yrotation
			JOINT neck
			{
				OFFSET 0.000000 10.207942 -0.272212 
				CHANNELS 3 Xrotation Zrotation Yrotation
				JOINT head
				{
					OFFSET 0.000000 3.130431 0.000000 
					CHANNELS 3 Xrotation Zrotation Yrotation
					End Site
					{
						OFFSET 0.000000 3.130435 0.000000 
					}
				}
			}
			JOINT lCollar
			{
				OFFSET 3.470700 6.669187 -0.816635 
				CHANNELS 3 Yrotation Zrotation Xrotation
				JOINT lShldr
				{
					OFFSET 3.198488 0.000000 0.000000 
					CHANNELS 3 Zrotation Yrotation Xrotation
					JOINT lForeArm
					{
						OFFSET 10.139888 0.000000 0.000000 
						CHANNELS 3 Yrotation Zrotation Xrotation
						JOINT lHand
						{
							OFFSET 8.370511 0.000000 0.000000 
							CHANNELS 3 Zrotation Yrotation Xrotation
							End Site
							{
								OFFSET 4.083176 0.000000 0.000000 
							}
						}
					}
				}
			}
			JOINT rCollar
			{
				OFFSET -3.470700 6.669187 -0.816635 
				CHANNELS 3 Yrotation Zrotation Xrotation
				JOINT rShldr
				{
					OFFSET -3.198488 0.000000 0.000000 
					CHANNELS 3 Zrotation Yrotation Xrotation
					JOINT rForeArm
					{
						OFFSET -10.139888 0.000000 0.000000 
						CHANNELS 3 Yrotation Zrotation Xrotation
						JOINT rHand
						{
							OFFSET -8.370511 0.000000 0.000000 
							CHANNELS 3 Zrotation Yrotation Xrotation
							End Site
							{
								OFFSET -4.083176 0.000000 0.000000 
							}
						}
					}
				}
			}
		}
	}
	JOINT lThigh
	{
		OFFSET 5.308129 -1.633274 1.361059 
		CHANNELS 3 Xrotation Zrotation Yrotation
		JOINT lShin
		{
			OFFSET -2.041588 -20.007561 0.000000 
			CHANNELS 3 Xrotation Zrotation Yrotation
			JOINT lFoot
			{
				OFFSET 0.000000 -19.190928 -1.224953 
				CHANNELS 3 Xrotation Yrotation Zrotation
				End Site
				{
					OFFSET 0.000000 -2.449906 4.627600 
				}
			}
		}
	}
	JOINT rThigh
	{
		OFFSET -5.308129 -1.633274 1.361059 
		CHANNELS 3 Xrotation Zrotation Yrotation
		JOINT rShin
		{
			OFFSET 2.041588 -20.007561 0.000000 
			CHANNELS 3 Xrotation Zrotation Yrotation
			JOINT rFoot
			{
				OFFSET 0.000000 -19.190928 -1.224953 
				CHANNELS 3 Xrotation Yrotation Zrotation
				End Site
				{
					OFFSET 0.000000 -2.449906 4.627600 
				}
			}
		}
	}
}
MOTION
Frames: 16
Frame Time: 0.033333
-2.236413 51.923138 1.537434 5.634766 3.671875 -36.894531 17.925529 -6.645166 -15.224174 -19.365236 11.396484 -1.923828 51.553619 8.070152 2.616707 -68.242188 -11.054687 22.724611 2.000000 -2.000000 0.000000 -80.156250 47.314453 -19.609375 -64.770737 -0.916970 -2.525003 32.052761 15.620368 21.162319 -2.000000 2.000000 0.000000 57.490234 -38.037109 18.304531 71.067001 0.765067 -2.436187 -27.130812 -59.014610 28.594515 7.964040 4.987718 0.719229 25.102448 -5.775433 -2.811669 -8.315861 -3.954282 13.679882 -15.047330 1.045436 -20.916317 11.970061 5.555422 1.287056 4.744511 -0.080380 -15.831536 
-4.472815 51.960808 3.074845 5.986328 3.310547 -37.275391 17.540306 -7.357932 -14.360420 -19.189453 11.220703 -1.201172 51.553619 8.070152 2.616707 -66.875000 -9.013671 19.765623 2.000000 -2.000000 0.000000 -75.166016 49.013672 -18.283644 -63.880306 -1.059809 -2.458022 30.071135 16.537590 21.161276 -2.000000 2.000000 0.000000 59.345703 -38.339844 16.937302 70.713684 0.927401 -2.368099 -29.182413 -59.173412 29.465649 1.394086 6.406893 2.193490 33.352184 -4.761173 -2.901561 -3.838968 4.245923 13.187482 -12.877520 2.178110 -21.482964 14.442118 5.509925 1.361285 0.911120 0.567774 -16.171001 
-6.530260 51.953274 4.633744 6.328125 2.792969 -37.831554 17.307379 -8.499938 -13.072495 -19.365236 11.396484 -0.341797 51.553619 8.070152 2.616707 -65.361328 -6.787109 15.966799 2.000000 -2.000000 0.000000 -70.000000 50.156250 -14.963204 -63.541107 -0.889421 -2.555941 29.148710 16.852896 20.943277 -2.000000 2.000000 0.000000 60.947266 -38.408203 16.185341 70.188644 0.756451 -2.456244 -29.936802 -59.725231 29.844467 -5.243045 8.406240 3.330803 41.603798 -4.416101 -3.888070 1.038561 12.782482 12.872766 -10.094446 3.476922 -22.035822 15.322131 5.449004 1.635133 -2.204031 1.286459 -15.586375 
-8.297637 51.877937 6.220438 6.669922 2.431641 -38.202709 17.346430 -10.752802 -10.914682 -20.781252 11.982422 1.044922 51.553619 8.070152 2.616707 -63.378902 -4.921875 10.028460 2.000000 -2.000000 0.000000 -63.935551 51.523438 -9.892580 -63.894657 -1.059686 -2.624262 29.497063 16.462297 20.636221 -2.000000 2.000000 0.000000 61.767578 -38.105469 15.618976 69.489143 0.930117 -2.583066 -29.143402 -59.945114 29.985443 -11.490788 10.104137 3.707461 47.871006 -3.828500 -4.298366 5.021166 19.492638 12.300479 -6.812681 4.657660 -22.110815 14.670156 5.925695 1.456702 -4.307371 1.804546 -15.413218 
-9.886031 51.825207 7.828620 6.660156 2.089844 -38.603516 17.505598 -13.333962 -8.490960 -22.724609 12.744141 2.480469 51.553619 8.070152 2.616707 -61.455086 -3.378906 3.417969 2.000000 -2.000000 0.000000 -57.333981 52.382813 -3.068434 -64.770996 -0.927286 -2.534181 31.214172 15.965907 20.197208 -2.000000 2.000000 0.000000 61.533203 -37.519535 15.351563 68.432953 1.083272 -2.525291 -27.656197 -60.409111 30.628956 -16.590565 11.112511 2.883848 50.596451 -4.278491 -4.499836 7.350813 23.416410 12.731794 -3.308950 6.121807 -22.629547 12.704385 5.914789 1.247806 -5.241107 2.842124 -15.418932 
-11.449883 51.855328 9.460630 6.660156 2.089844 -38.789063 17.288099 -15.058789 -6.470100 -23.632813 12.773438 3.681641 51.553619 8.070152 2.616707 -59.785156 -2.490234 -1.591797 2.000000 -2.000000 0.000000 -57.783203 53.271484 -2.082017 -65.822334 -0.754184 -2.417132 32.765339 15.036937 20.027422 -2.000000 2.000000 0.000000 60.078125 -35.712891 17.777504 67.715263 1.043823 -2.351567 -27.096889 -60.784126 31.120056 -19.625153 10.613008 2.551494 47.049889 -4.202294 -4.209617 6.829508 21.590176 15.124700 -0.992555 6.431479 -22.491211 13.234765 5.974938 1.000515 -5.158337 2.475394 -15.529856 
-13.052930 51.727264 11.114186 6.142578 2.246094 -39.140244 16.904665 -15.688816 -4.994427 -23.486330 11.718750 4.667969 51.553619 8.070152 2.616707 -57.958984 -1.767578 -4.941708 2.000000 -2.000000 0.000000 -59.414066 54.169922 -3.359375 -67.407837 -0.781048 -2.542689 33.725491 14.002709 19.313410 -2.000000 2.000000 0.000000 57.695313 -32.968750 22.968748 66.848984 0.854509 -2.460333 -28.516861 -60.972900 32.499073 -20.249945 9.040994 2.220191 38.249241 -4.572198 -3.584389 4.782773 14.181809 18.158772 1.838346 6.573448 -21.776070 12.898484 5.826515 0.770370 -5.709277 1.744180 -15.680387 
-14.655500 51.614265 12.782845 5.429688 2.431640 -39.335938 16.069765 -16.327522 -3.075926 -22.988283 10.478517 5.683594 51.553619 8.070152 2.616707 -55.947269 -1.064453 -8.232423 2.000000 -2.000000 0.000000 -60.351559 55.703125 -4.552479 -69.356453 -0.635811 -2.737035 33.623135 13.051595 19.612194 -2.000000 2.000000 0.000000 55.703125 -29.560551 27.963934 66.488129 1.177932 -2.470908 -31.993374 -61.064568 35.237511 -20.142860 6.834907 1.351609 27.491007 -5.151087 -3.115510 3.451084 5.923672 19.498341 4.949316 6.000150 -21.465811 13.076832 5.714732 1.457787 -6.498253 1.465390 -15.181653 
-16.257723 51.267731 14.462715 4.746094 2.802735 -39.667965 15.204708 -16.690928 -1.300633 -22.138672 8.876953 6.700727 51.553619 8.070152 2.616707 -53.603519 -0.380859 -11.132813 2.000000 -2.000000 0.000000 -62.314453 57.412113 -7.442944 -71.469353 -0.661792 -2.510514 33.103771 11.852627 19.550249 -2.000000 2.000000 0.000000 55.546875 -27.666016 29.116560 66.324448 1.016727 -2.558486 -33.379765 -60.720512 35.936432 -20.180788 4.119860 0.435872 20.250126 -5.585686 -2.309938 1.674219 -0.063000 19.421438 8.407663 5.516878 -20.769703 13.104315 5.726610 1.441100 -7.080573 0.958654 -15.279647 
-17.859137 50.800659 16.149990 3.867188 3.320313 -40.018963 14.390144 -16.700544 0.232695 -21.474609 7.294923 7.656251 51.553619 8.070152 2.616707 -50.908207 0.107422 -13.417969 2.000000 -2.000000 0.000000 -64.121094 58.750004 -10.685011 -73.941826 -0.372714 -2.586004 32.293076 10.947717 19.560472 -2.000000 2.000000 0.000000 57.109375 -27.548826 26.147827 66.500237 1.016727 -2.558486 -34.550617 -60.595547 36.213238 -19.869411 0.478289 0.354204 17.092833 -5.730971 -2.351704 0.850938 -0.692806 18.612276 10.962677 4.752647 -20.051497 14.173773 5.647842 1.547639 -7.302970 -0.135093 -15.308605 
-19.459629 50.401394 17.840969 2.978516 3.671875 -40.234375 13.579769 -16.777819 1.531650 -20.810549 5.712891 8.203124 51.553619 8.070152 2.616707 -48.232426 0.576172 -14.960937 2.000000 -2.000000 0.000000 -65.996094 60.234371 -13.906249 -76.400864 -0.407747 -2.515517 31.769859 9.465991 19.482100 -2.000000 2.000000 0.000000 59.228519 -27.285158 21.548258 66.663643 1.177365 -2.461162 -34.948055 -60.208439 36.181473 -19.160898 -3.953245 -1.089357 15.683456 -5.693160 -2.026283 -0.151156 2.061157 17.836100 13.151154 3.679572 -19.556820 15.582126 5.608726 1.540600 -6.689724 -1.349075 -15.055886 
-21.058842 50.182919 19.531719 2.109375 4.033203 -40.272747 13.253020 -16.353113 2.189288 -20.312502 4.306641 8.564453 51.553619 8.070152 2.616707 -45.419930 0.527344 -15.449219 2.000000 -2.000000 0.000000 -67.236328 60.712891 -16.622343 -78.860764 -0.278742 -2.483909 31.456467 8.342628 19.232132 -2.000000 2.000000 0.000000 61.230469 -27.578127 17.451172 67.024498 0.853943 -2.450588 -34.769196 -59.771164 35.453125 -17.817162 -6.902727 -1.819352 15.851416 -5.690784 -2.012475 -2.569986 4.261703 16.852612 14.205403 2.371412 -19.569876 19.292065 5.403918 2.265749 -3.480027 -2.606522 -14.844115 
-22.656668 50.205524 21.218531 1.406250 4.541016 -40.487511 13.111896 -15.677777 2.009430 -19.980471 3.437500 8.623047 51.553619 8.070152 2.616707 -42.666016 -0.224609 -14.628906 2.000000 -2.000000 0.000000 -67.695313 60.400394 -18.272757 -81.691170 -0.159228 -2.784240 32.309643 6.473363 19.344587 -2.000000 2.000000 0.000000 62.744141 -27.724611 13.554688 67.554077 1.054025 -2.526987 -35.113495 -59.431156 35.442944 -16.402147 -7.899015 -2.140619 19.389248 -5.740838 -2.422579 -6.262824 4.524421 15.916134 12.954741 0.242771 -19.536808 25.273411 5.190205 2.338068 4.812952 -3.329069 -14.609943 
-24.252758 50.197987 22.897476 0.703125 4.902344 -40.371094 13.440254 -14.666605 1.180539 -20.156250 2.919922 8.349538 51.553619 8.070152 2.616707 -40.136719 -1.816406 -12.461246 2.000000 -2.000000 0.000000 -66.787109 59.609375 -18.525391 -84.505836 -0.212494 -2.859376 33.489594 4.488061 18.981564 -2.000000 2.000000 0.000000 62.734371 -27.294924 12.275390 68.083206 0.881937 -2.595640 -34.909889 -59.149670 34.981964 -14.475457 -8.833971 -2.063468 21.683407 -5.652871 -2.653355 -9.488593 4.539392 15.328930 10.119786 -2.245880 -19.149000 30.895159 4.879485 3.032922 21.085075 -3.904798 -12.979448 
-25.846998 50.310986 24.564850 0.351563 5.244135 -40.213985 14.039637 -13.224983 -0.095813 -20.517578 2.412109 7.725020 51.553619 8.070152 2.616707 -38.457031 -5.556640 -8.955079 2.000000 -2.000000 0.000000 -65.957031 58.408199 -18.828125 -87.321342 -0.091119 -2.621945 34.774704 2.966561 18.336946 -2.000000 2.000000 0.000000 61.435543 -27.343750 13.154296 68.258987 0.881937 -2.595639 -33.594227 -58.770184 33.849838 -12.445583 -9.097704 -2.065670 23.440104 -5.594212 -2.790750 -12.880183 4.155489 15.064199 4.787941 -4.584780 -16.418982 35.836044 4.596409 2.793959 25.310770 -6.333024 -11.019752 
-27.439154 50.378799 26.216833 0.341797 5.605469 -39.334984 14.690024 -11.510103 -1.821713 -20.878906 2.060547 7.128906 51.553619 8.070152 2.616707 -37.851563 -11.054687 -4.208984 2.000000 -2.000000 0.000000 -64.179688 57.265629 -18.222656 -90.155045 0.031394 -3.039754 35.572884 1.527563 17.950552 -2.000000 2.000000 0.000000 59.843746 -27.763672 14.287108 68.610283 0.881370 -2.585894 -32.070110 -58.238659 33.014244 -11.277576 -9.852498 -1.217801 26.260624 -5.447641 -3.110925 -16.447233 3.239872 15.056088 -2.772533 -7.717418 -13.734649 42.633057 4.023149 3.657827 21.856905 -12.188722 -8.505709 
